Coordinates
version=1
nRows=7
nColumns=33
inDegrees=yes

Units are S.I. units (second, meters, Newtons, ...)
Angles are in degrees.

endheader
time	ground_thorax_rot_x	ground_thorax_rot_y	ground_thorax_rot_z	ground_thorax_tx	ground_thorax_ty	ground_thorax_tz	clav_prot_r	clav_elev_r	scapula_abduction_r	scapula_elevation_r	scapula_upward_rot_r	scapula_winging_r	shoulder_elv_r	plane_of_elev_r	axial_rot_r	elbow_flexion_r	pro_sup_r	wrist_flex_r	wrist_dev_r	clav_prot_l	clav_elev_l	scapula_abduction_l	scapula_elevation_l	scapula_upward_rot_l	scapula_winging_l	shoulder_elv_l	plane_of_elev_l	axial_rot_l	elbow_flexion_l	pro_sup_l	wrist_flex_l	wrist_dev_l
      3.79000000	    -37.18168591	    -22.00920738	     22.26747220	    -59.64267040	    848.46079275	    -48.38957035	     24.39071282	    -45.00000000	     39.07229436	    -45.00000000	    -42.33383228	  -4416.89964916	  -1723.93113545	     25.17677333	    179.99999979	   1802.20388051	   -184.23913041	     14.88043357	     15.43411670	      2.10019348	     29.70237682	    -29.05191396	    -45.00000000	    -45.00000000	  -4600.70984878	  -2421.72847504	     19.49979201	   -179.99999979	   1798.05056833	   -178.12221370	     10.50220278	    -17.68198925
      3.80000000	    -37.40105072	    -21.67033075	     21.64675271	    -61.20166483	    849.28638785	    -48.47030534	     24.21918535	    -45.00000000	     39.12154107	    -45.00000000	    -41.89219113	  -4416.91212457	  -1723.96761253	     25.14102944	    179.99999979	   1802.28690739	   -184.38310154	     15.03270005	     15.45995581	      1.90353636	     29.80294249	    -29.11956203	    -45.00000000	    -45.00000000	  -4600.65239437	  -2421.76224653	     19.58330101	   -179.99999979	   1798.18524550	   -178.00129797	     10.43466721	    -17.84711517
      3.81000000	    -37.32733180	    -22.09223966	     22.20722338	    -62.75078808	    850.08432128	    -48.55524210	     24.47862619	    -45.00000000	     38.66540376	    -45.00000000	    -43.73871956	  -4417.04968559	  -1723.82141905	     25.37209999	    179.99999979	   1802.19109954	   -184.52956450	     15.04414102	     15.45002795	      2.05236761	     29.80995660	    -28.91603960	    -45.00000000	    -45.00000000	  -4600.43684997	  -2421.67899457	     19.54137573	   -179.99999979	   1798.26821532	   -177.82581768	     10.63300095	    -17.82017073
      3.82000000	    -37.44467091	    -21.89098027	     21.88523096	    -64.28607026	    850.85498456	    -48.64219554	     24.54599729	    -45.00000000	     38.58349160	    -45.00000000	    -43.92991482	  -4417.15632108	  -1723.81920191	     25.44626630	    179.99999979	   1802.23118506	   -184.74804284	     15.17060388	     15.47952751	      1.89723533	     29.85717124	    -28.94960259	    -45.00000000	    -45.00000000	  -4600.32466914	  -2421.70453212	     19.63393488	   -179.99999979	   1798.32035325	   -177.48370185	     10.68478430	    -17.96585779
      3.83000000	    -37.55799649	    -21.62885068	     21.48192357	    -65.80714380	    851.59869098	    -48.72732323	     24.49844122	    -45.00000000	     38.56292361	    -45.00000000	    -43.98231450	  -4417.20248513	  -1723.80265032	     25.41270843	    179.99999979	   1802.17676801	   -184.85998337	     15.23082355	     15.48925116	      2.03769900	     29.81739182	    -28.97068856	    -45.00000000	    -45.00000000	  -4600.34374468	  -2421.63999459	     19.61574964	   -179.99999979	   1798.24730909	   -177.22878180	     10.57494692	    -18.07123211
      3.84000000	    -37.62321538	    -21.46127510	     21.25156449	    -67.31734145	    852.31507543	    -48.80668168	     24.52424974	    -45.00000000	     38.44066346	    -45.00000000	    -44.14887413	  -4417.26913692	  -1723.75356559	     25.45153520	    179.99999979	   1802.26535484	   -184.97062284	     15.29886745	     15.46428006	      1.97409499	     29.84058595	    -28.95466734	    -45.00000000	    -45.00000000	  -4600.32128737	  -2421.62561058	     19.64031098	   -179.99999979	   1798.28896413	   -176.96215967	     10.54542527	    -18.19165318
      3.85000000	    -37.70261271	    -21.31190483	     20.99752584	    -68.81515458	    852.99985540	    -48.87593589	     24.49945141	    -45.00000000	     38.41875940	    -45.00000000	    -44.45795181	  -4417.35269188	  -1723.75969923	     25.44309863	    179.99999979	   1802.19711305	   -185.07400260	     15.42785885	     15.48073784	      1.90588382	     29.87865650	    -28.94906284	    -45.00000000	    -45.00000000	  -4600.24973040	  -2421.62208733	     19.65680832	   -179.99999979	   1798.29446200	   -176.67755688	     10.52825282	    -18.33907399
